<svg width="800" height="500" xmlns="http://www.w3.org/2000/svg"><rect width="100%" height="100%" fill="white"/><text x="400.0" y="25.0" text-anchor="middle" font-family="Arial" font-size="20" font-weight="bold">Top 20 Breeds by Bite Risk (Bites per 1,000 Licenses)</text><rect x="150" y="50.0" width="630.0" height="16.0" fill="#4285F4"/><text x="140" y="63.0" text-anchor="end" font-family="Arial" font-size="12">Corgi</text><text x="785.0" y="63.0" font-family="Arial" font-size="12">314.7410358565737</text><rect x="150" y="70.0" width="543.1974965883958" height="16.0" fill="#4285F4"/><text x="140" y="83.0" text-anchor="end" font-family="Arial" font-size="12">Hound</text><text x="698.1974965883958" y="83.0" font-family="Arial" font-size="12">271.37546468401484</text><rect x="150" y="90.0" width="428.65699632564963" height="16.0" fill="#4285F4"/><text x="140" y="103.0" text-anchor="end" font-family="Arial" font-size="12">Pit Bull</text><text x="583.6569963256496" y="103.0" font-family="Arial" font-size="12">214.15229690587694</text><rect x="150" y="110.0" width="339.90207786004294" height="16.0" fill="#4285F4"/><text x="140" y="123.0" text-anchor="end" font-family="Arial" font-size="12">Saint Bernard</text><text x="494.90207786004294" y="123.0" font-family="Arial" font-size="12">169.81132075471697</text><rect x="150" y="130.0" width="337.3771722806265" height="16.0" fill="#4285F4"/><text x="140" y="143.0" text-anchor="end" font-family="Arial" font-size="12">Rottweiler</text><text x="492.3771722806265" y="143.0" font-family="Arial" font-size="12">168.54990583804144</text><rect x="150" y="150.0" width="313.76125076200384" height="16.0" fill="#4285F4"/><text x="140" y="163.0" text-anchor="end" font-family="Arial" font-size="12">Mastiff</text><text x="468.76125076200384" y="163.0" font-family="Arial" font-size="12">156.75165250236074</text><rect x="150" y="170.0" width="212.98974596645718" height="16.0" fill="#4285F4"/><text x="140" y="183.0" text-anchor="end" font-family="Arial" font-size="12">Akita</text><text x="367.9897459664572" y="183.0" font-family="Arial" font-size="12">106.40732265446225</text><rect x="150" y="190.0" width="187.2678114560872" height="16.0" fill="#4285F4"/><text x="140" y="203.0" text-anchor="end" font-family="Arial" font-size="12">Chow Chow</text><text x="342.2678114560872" y="203.0" font-family="Arial" font-size="12">93.55692850838481</text><rect x="150" y="210.0" width="173.35823698395134" height="16.0" fill="#4285F4"/><text x="140" y="223.0" text-anchor="end" font-family="Arial" font-size="12">Cane Corso</text><text x="328.3582369839513" y="223.0" font-family="Arial" font-size="12">86.60785886126703</text><rect x="150" y="230.0" width="159.5717447109852" height="16.0" fill="#4285F4"/><text x="140" y="243.0" text-anchor="end" font-family="Arial" font-size="12">Doberman Pinscher</text><text x="314.5717447109852" y="243.0" font-family="Arial" font-size="12">79.72027972027972</text><rect x="150" y="250.0" width="156.6505228398459" height="16.0" fill="#4285F4"/><text x="140" y="263.0" text-anchor="end" font-family="Arial" font-size="12">German Pinscher</text><text x="311.6505228398459" y="263.0" font-family="Arial" font-size="12">78.26086956521739</text><rect x="150" y="270.0" width="150.897674347538" height="16.0" fill="#4285F4"/><text x="140" y="283.0" text-anchor="end" font-family="Arial" font-size="12">Siberian Husky</text><text x="305.897674347538" y="283.0" font-family="Arial" font-size="12">75.38681005157467</text><rect x="150" y="290.0" width="150.75154917642075" height="16.0" fill="#4285F4"/><text x="140" y="303.0" text-anchor="end" font-family="Arial" font-size="12">Belgian Malinois</text><text x="305.7515491764208" y="303.0" font-family="Arial" font-size="12">75.31380753138076</text><rect x="150" y="310.0" width="138.3625969783585" height="16.0" fill="#4285F4"/><text x="140" y="323.0" text-anchor="end" font-family="Arial" font-size="12">Great Dane</text><text x="293.3625969783585" y="323.0" font-family="Arial" font-size="12">69.12442396313365</text><rect x="150" y="330.0" width="133.44303797468353" height="16.0" fill="#4285F4"/><text x="140" y="343.0" text-anchor="end" font-family="Arial" font-size="12">Dalmatian</text><text x="288.44303797468353" y="343.0" font-family="Arial" font-size="12">66.66666666666667</text><rect x="150" y="350.0" width="119.19911819086902" height="16.0" fill="#4285F4"/><text x="140" y="363.0" text-anchor="end" font-family="Arial" font-size="12">Collie, Border</text><text x="274.199118190869" y="363.0" font-family="Arial" font-size="12">59.55056179775281</text><rect x="150" y="370.0" width="118.92775322240992" height="16.0" fill="#4285F4"/><text x="140" y="383.0" text-anchor="end" font-family="Arial" font-size="12">Bull Terrier</text><text x="273.92775322240993" y="383.0" font-family="Arial" font-size="12">59.41499085923217</text><rect x="150" y="390.0" width="104.12103866336403" height="16.0" fill="#4285F4"/><text x="140" y="403.0" text-anchor="end" font-family="Arial" font-size="12">German Shepherd</text><text x="259.12103866336406" y="403.0" font-family="Arial" font-size="12">52.01771994185644</text><rect x="150" y="410.0" width="93.06574845690237" height="16.0" fill="#4285F4"/><text x="140" y="423.0" text-anchor="end" font-family="Arial" font-size="12">Bulldog</text><text x="248.06574845690238" y="423.0" font-family="Arial" font-size="12">46.49461916205203</text><rect x="150" y="430.0" width="77.08860759493672" height="16.0" fill="#4285F4"/><text x="140" y="443.0" text-anchor="end" font-family="Arial" font-size="12">Weimaraner</text><text x="232.08860759493672" y="443.0" font-family="Arial" font-size="12">38.51261620185923</text></svg>