<svg width="800" height="500" xmlns="http://www.w3.org/2000/svg"><rect width="100%" height="100%" fill="white"/><text x="400.0" y="25.0" text-anchor="middle" font-family="Arial" font-size="20" font-weight="bold">Top 20 Biting Breeds (Absolute Counts)</text><rect x="150" y="50.0" width="630.0" height="16.0" fill="#4285F4"/><text x="140" y="63.0" text-anchor="end" font-family="Arial" font-size="12">Pit Bull</text><text x="785.0" y="63.0" font-family="Arial" font-size="12">6329</text><rect x="150" y="70.0" width="114.37351872333701" height="16.0" fill="#4285F4"/><text x="140" y="83.0" text-anchor="end" font-family="Arial" font-size="12">German Shepherd</text><text x="269.37351872333704" y="83.0" font-family="Arial" font-size="12">1149</text><rect x="150" y="90.0" width="101.23400221203983" height="16.0" fill="#4285F4"/><text x="140" y="103.0" text-anchor="end" font-family="Arial" font-size="12">Shih Tzu</text><text x="256.23400221203985" y="103.0" font-family="Arial" font-size="12">1017</text><rect x="150" y="110.0" width="95.85874545741824" height="16.0" fill="#4285F4"/><text x="140" y="123.0" text-anchor="end" font-family="Arial" font-size="12">Chihuahua</text><text x="250.85874545741825" y="123.0" font-family="Arial" font-size="12">963</text><rect x="150" y="130.0" width="67.48933480802654" height="16.0" fill="#4285F4"/><text x="140" y="143.0" text-anchor="end" font-family="Arial" font-size="12">Labrador Retriever</text><text x="222.48933480802654" y="143.0" font-family="Arial" font-size="12">678</text><rect x="150" y="150.0" width="65.89666613999051" height="16.0" fill="#4285F4"/><text x="140" y="163.0" text-anchor="end" font-family="Arial" font-size="12">Yorkshire Terrier</text><text x="220.89666613999051" y="163.0" font-family="Arial" font-size="12">662</text><rect x="150" y="170.0" width="64.30399747195449" height="16.0" fill="#4285F4"/><text x="140" y="183.0" text-anchor="end" font-family="Arial" font-size="12">Bulldog</text><text x="219.3039974719545" y="183.0" font-family="Arial" font-size="12">646</text><rect x="150" y="190.0" width="59.028282509085166" height="16.0" fill="#4285F4"/><text x="140" y="203.0" text-anchor="end" font-family="Arial" font-size="12">Poodle</text><text x="214.02828250908516" y="203.0" font-family="Arial" font-size="12">593</text><rect x="150" y="210.0" width="51.16448096065729" height="16.0" fill="#4285F4"/><text x="140" y="223.0" text-anchor="end" font-family="Arial" font-size="12">Maltese</text><text x="206.1644809606573" y="223.0" font-family="Arial" font-size="12">514</text><rect x="150" y="230.0" width="49.77089587612577" height="16.0" fill="#4285F4"/><text x="140" y="243.0" text-anchor="end" font-family="Arial" font-size="12">Siberian Husky</text><text x="204.77089587612576" y="243.0" font-family="Arial" font-size="12">500</text><rect x="150" y="250.0" width="40.41396745141412" height="16.0" fill="#4285F4"/><text x="140" y="263.0" text-anchor="end" font-family="Arial" font-size="12">Rottweiler</text><text x="195.41396745141412" y="263.0" font-family="Arial" font-size="12">406</text><rect x="150" y="270.0" width="30.459788276188974" height="16.0" fill="#4285F4"/><text x="140" y="283.0" text-anchor="end" font-family="Arial" font-size="12">Terrier</text><text x="185.459788276189" y="283.0" font-family="Arial" font-size="12">306</text><rect x="150" y="290.0" width="27.87170169063043" height="16.0" fill="#4285F4"/><text x="140" y="303.0" text-anchor="end" font-family="Arial" font-size="12">Jack Russell Terrier</text><text x="182.87170169063043" y="303.0" font-family="Arial" font-size="12">280</text><rect x="150" y="310.0" width="27.17490914836467" height="16.0" fill="#4285F4"/><text x="140" y="323.0" text-anchor="end" font-family="Arial" font-size="12">Beagle</text><text x="182.17490914836466" y="323.0" font-family="Arial" font-size="12">273</text><rect x="150" y="330.0" width="19.709274766945803" height="16.0" fill="#4285F4"/><text x="140" y="343.0" text-anchor="end" font-family="Arial" font-size="12">Cocker Spaniel</text><text x="174.7092747669458" y="343.0" font-family="Arial" font-size="12">198</text><rect x="150" y="350.0" width="17.320271764891768" height="16.0" fill="#4285F4"/><text x="140" y="363.0" text-anchor="end" font-family="Arial" font-size="12">Boxer</text><text x="172.32027176489177" y="363.0" font-family="Arial" font-size="12">174</text><rect x="150" y="370.0" width="16.92210459788276" height="16.0" fill="#4285F4"/><text x="140" y="383.0" text-anchor="end" font-family="Arial" font-size="12">Golden Retriever</text><text x="171.92210459788276" y="383.0" font-family="Arial" font-size="12">170</text><rect x="150" y="390.0" width="14.533101595828725" height="16.0" fill="#4285F4"/><text x="140" y="403.0" text-anchor="end" font-family="Arial" font-size="12">Shiba Inu</text><text x="169.53310159582873" y="403.0" font-family="Arial" font-size="12">146</text><rect x="150" y="410.0" width="14.23447622057197" height="16.0" fill="#4285F4"/><text x="140" y="423.0" text-anchor="end" font-family="Arial" font-size="12">Pomeranian</text><text x="169.23447622057196" y="423.0" font-family="Arial" font-size="12">143</text><rect x="150" y="430.0" width="13.935850845315215" height="16.0" fill="#4285F4"/><text x="140" y="443.0" text-anchor="end" font-family="Arial" font-size="12">Mastiff</text><text x="168.9358508453152" y="443.0" font-family="Arial" font-size="12">140</text></svg>