<svg width="800" height="500" xmlns="http://www.w3.org/2000/svg"><rect width="100%" height="100%" fill="white"/><text x="400.0" y="25.0" text-anchor="middle" font-family="Arial" font-size="20" font-weight="bold">Top 20 Biting Breeds (Absolute Counts)</text><rect x="150" y="50.0" width="630.0" height="16.0" fill="#4285F4"/><text x="140" y="63.0" text-anchor="end" font-family="Arial" font-size="12">Pit Bull</text><text x="785.0" y="63.0" font-family="Arial" font-size="12">7911</text><rect x="150" y="70.0" width="119.69283276450511" height="16.0" fill="#4285F4"/><text x="140" y="83.0" text-anchor="end" font-family="Arial" font-size="12">German Shepherd</text><text x="274.6928327645051" y="83.0" font-family="Arial" font-size="12">1503</text><rect x="150" y="90.0" width="96.20022753128556" height="16.0" fill="#4285F4"/><text x="140" y="103.0" text-anchor="end" font-family="Arial" font-size="12">Shih Tzu</text><text x="251.20022753128558" y="103.0" font-family="Arial" font-size="12">1208</text><rect x="150" y="110.0" width="90.54607508532425" height="16.0" fill="#4285F4"/><text x="140" y="123.0" text-anchor="end" font-family="Arial" font-size="12">Chihuahua</text><text x="245.54607508532425" y="123.0" font-family="Arial" font-size="12">1137</text><rect x="150" y="130.0" width="70.87599544937429" height="16.0" fill="#4285F4"/><text x="140" y="143.0" text-anchor="end" font-family="Arial" font-size="12">Bulldog</text><text x="225.87599544937427" y="143.0" font-family="Arial" font-size="12">890</text><rect x="150" y="150.0" width="66.49601820250285" height="16.0" fill="#4285F4"/><text x="140" y="163.0" text-anchor="end" font-family="Arial" font-size="12">Labrador Retriever</text><text x="221.49601820250285" y="163.0" font-family="Arial" font-size="12">835</text><rect x="150" y="170.0" width="63.4698521046644" height="16.0" fill="#4285F4"/><text x="140" y="183.0" text-anchor="end" font-family="Arial" font-size="12">Yorkshire Terrier</text><text x="218.4698521046644" y="183.0" font-family="Arial" font-size="12">797</text><rect x="150" y="190.0" width="58.45278725824801" height="16.0" fill="#4285F4"/><text x="140" y="203.0" text-anchor="end" font-family="Arial" font-size="12">Poodle</text><text x="213.452787258248" y="203.0" font-family="Arial" font-size="12">734</text><rect x="150" y="210.0" width="54.7098976109215" height="16.0" fill="#4285F4"/><text x="140" y="223.0" text-anchor="end" font-family="Arial" font-size="12">Siberian Husky</text><text x="209.7098976109215" y="223.0" font-family="Arial" font-size="12">687</text><rect x="150" y="230.0" width="47.70193401592719" height="16.0" fill="#4285F4"/><text x="140" y="243.0" text-anchor="end" font-family="Arial" font-size="12">Maltese</text><text x="202.70193401592718" y="243.0" font-family="Arial" font-size="12">599</text><rect x="150" y="250.0" width="42.76450511945392" height="16.0" fill="#4285F4"/><text x="140" y="263.0" text-anchor="end" font-family="Arial" font-size="12">Rottweiler</text><text x="197.76450511945393" y="263.0" font-family="Arial" font-size="12">537</text><rect x="150" y="270.0" width="28.98748577929465" height="16.0" fill="#4285F4"/><text x="140" y="283.0" text-anchor="end" font-family="Arial" font-size="12">Terrier</text><text x="183.98748577929464" y="283.0" font-family="Arial" font-size="12">364</text><rect x="150" y="290.0" width="25.483503981797497" height="16.0" fill="#4285F4"/><text x="140" y="303.0" text-anchor="end" font-family="Arial" font-size="12">Beagle</text><text x="180.4835039817975" y="303.0" font-family="Arial" font-size="12">320</text><rect x="150" y="310.0" width="25.483503981797497" height="16.0" fill="#4285F4"/><text x="140" y="323.0" text-anchor="end" font-family="Arial" font-size="12">Jack Russell Terrier</text><text x="180.4835039817975" y="323.0" font-family="Arial" font-size="12">320</text><rect x="150" y="330.0" width="18.63481228668942" height="16.0" fill="#4285F4"/><text x="140" y="343.0" text-anchor="end" font-family="Arial" font-size="12">Cocker Spaniel</text><text x="173.63481228668942" y="343.0" font-family="Arial" font-size="12">234</text><rect x="150" y="350.0" width="16.88282138794084" height="16.0" fill="#4285F4"/><text x="140" y="363.0" text-anchor="end" font-family="Arial" font-size="12">Golden Retriever</text><text x="171.88282138794085" y="363.0" font-family="Arial" font-size="12">212</text><rect x="150" y="370.0" width="15.688282138794083" height="16.0" fill="#4285F4"/><text x="140" y="383.0" text-anchor="end" font-family="Arial" font-size="12">Boxer</text><text x="170.68828213879408" y="383.0" font-family="Arial" font-size="12">197</text><rect x="150" y="390.0" width="14.891922639362912" height="16.0" fill="#4285F4"/><text x="140" y="403.0" text-anchor="end" font-family="Arial" font-size="12">Pomeranian</text><text x="169.89192263936292" y="403.0" font-family="Arial" font-size="12">187</text><rect x="150" y="410.0" width="14.891922639362912" height="16.0" fill="#4285F4"/><text x="140" y="423.0" text-anchor="end" font-family="Arial" font-size="12">Shiba Inu</text><text x="169.89192263936292" y="423.0" font-family="Arial" font-size="12">187</text><rect x="150" y="430.0" width="13.219567690557453" height="16.0" fill="#4285F4"/><text x="140" y="443.0" text-anchor="end" font-family="Arial" font-size="12">Mastiff</text><text x="168.21956769055745" y="443.0" font-family="Arial" font-size="12">166</text></svg>