<svg width="800" height="500" xmlns="http://www.w3.org/2000/svg"><rect width="100%" height="100%" fill="white"/><text x="400.0" y="25.0" text-anchor="middle" font-family="Arial" font-size="20" font-weight="bold">Top 20 Breeds by Bite Risk (Bites per 1,000 Licenses)</text><rect x="150" y="50.0" width="630.0" height="16.0" fill="#4285F4"/><text x="140" y="63.0" text-anchor="end" font-family="Arial" font-size="12">Pit Bull</text><text x="785.0" y="63.0" font-family="Arial" font-size="12">738.9375364856976</text><rect x="150" y="70.0" width="503.63106535917643" height="16.0" fill="#4285F4"/><text x="140" y="83.0" text-anchor="end" font-family="Arial" font-size="12">Mastiff</text><text x="658.6310653591764" y="83.0" font-family="Arial" font-size="12">590.717299578059</text><rect x="150" y="90.0" width="481.42646901441174" height="16.0" fill="#4285F4"/><text x="140" y="103.0" text-anchor="end" font-family="Arial" font-size="12">Rottweiler</text><text x="636.4264690144117" y="103.0" font-family="Arial" font-size="12">564.673157162726</text><rect x="150" y="110.0" width="310.02743503928525" height="16.0" fill="#4285F4"/><text x="140" y="123.0" text-anchor="end" font-family="Arial" font-size="12">Akita</text><text x="465.02743503928525" y="123.0" font-family="Arial" font-size="12">363.6363636363636</text><rect x="150" y="130.0" width="288.23725054808995" height="16.0" fill="#4285F4"/><text x="140" y="143.0" text-anchor="end" font-family="Arial" font-size="12">Chow Chow</text><text x="443.23725054808995" y="143.0" font-family="Arial" font-size="12">338.0782918149466</text><rect x="150" y="150.0" width="262.82400977954444" height="16.0" fill="#4285F4"/><text x="140" y="163.0" text-anchor="end" font-family="Arial" font-size="12">Collie, Border</text><text x="417.82400977954444" y="163.0" font-family="Arial" font-size="12">308.2706766917293</text><rect x="150" y="170.0" width="238.8420576676763" height="16.0" fill="#4285F4"/><text x="140" y="183.0" text-anchor="end" font-family="Arial" font-size="12">Cane Corso</text><text x="393.8420576676763" y="183.0" font-family="Arial" font-size="12">280.1418439716312</text><rect x="150" y="190.0" width="231.56370147995995" height="16.0" fill="#4285F4"/><text x="140" y="203.0" text-anchor="end" font-family="Arial" font-size="12">Doberman Pinscher</text><text x="386.56370147995995" y="203.0" font-family="Arial" font-size="12">271.6049382716049</text><rect x="150" y="210.0" width="168.73889042502765" height="16.0" fill="#4285F4"/><text x="140" y="223.0" text-anchor="end" font-family="Arial" font-size="12">Belgian Malinois</text><text x="323.73889042502765" y="223.0" font-family="Arial" font-size="12">197.91666666666666</text><rect x="150" y="230.0" width="166.28244521167338" height="16.0" fill="#4285F4"/><text x="140" y="243.0" text-anchor="end" font-family="Arial" font-size="12">Bull Terrier</text><text x="321.28244521167335" y="243.0" font-family="Arial" font-size="12">195.03546099290782</text><rect x="150" y="250.0" width="159.30034498468507" height="16.0" fill="#4285F4"/><text x="140" y="263.0" text-anchor="end" font-family="Arial" font-size="12">Siberian Husky</text><text x="314.30034498468507" y="263.0" font-family="Arial" font-size="12">186.84603886397608</text><rect x="150" y="270.0" width="151.78426507131675" height="16.0" fill="#4285F4"/><text x="140" y="283.0" text-anchor="end" font-family="Arial" font-size="12">Great Dane</text><text x="306.7842650713168" y="283.0" font-family="Arial" font-size="12">178.03030303030303</text><rect x="150" y="290.0" width="147.8454531256707" height="16.0" fill="#4285F4"/><text x="140" y="303.0" text-anchor="end" font-family="Arial" font-size="12">Dalmatian</text><text x="302.8454531256707" y="303.0" font-family="Arial" font-size="12">173.41040462427745</text><rect x="150" y="310.0" width="125.883622952193" height="16.0" fill="#4285F4"/><text x="140" y="323.0" text-anchor="end" font-family="Arial" font-size="12">West High White Terrier</text><text x="280.883622952193" y="323.0" font-family="Arial" font-size="12">147.6510067114094</text><rect x="150" y="330.0" width="122.16101607000641" height="16.0" fill="#4285F4"/><text x="140" y="343.0" text-anchor="end" font-family="Arial" font-size="12">German Shepherd</text><text x="277.16101607000644" y="343.0" font-family="Arial" font-size="12">143.28469884025438</text><rect x="150" y="350.0" width="118.6486704673209" height="16.0" fill="#4285F4"/><text x="140" y="363.0" text-anchor="end" font-family="Arial" font-size="12">Dachshund Smooth Coat</text><text x="273.6486704673209" y="363.0" font-family="Arial" font-size="12">139.16500994035786</text><rect x="150" y="370.0" width="111.96660669796509" height="16.0" fill="#4285F4"/><text x="140" y="383.0" text-anchor="end" font-family="Arial" font-size="12">Bulldog</text><text x="266.96660669796506" y="383.0" font-family="Arial" font-size="12">131.3275055905672</text><rect x="150" y="390.0" width="108.83941868400439" height="16.0" fill="#4285F4"/><text x="140" y="403.0" text-anchor="end" font-family="Arial" font-size="12">Weimaraner</text><text x="263.8394186840044" y="403.0" font-family="Arial" font-size="12">127.6595744680851</text><rect x="150" y="410.0" width="104.44656465354838" height="16.0" fill="#4285F4"/><text x="140" y="423.0" text-anchor="end" font-family="Arial" font-size="12">Wheaton Terrier</text><text x="259.44656465354836" y="423.0" font-family="Arial" font-size="12">122.5071225071225</text><rect x="150" y="430.0" width="102.30905356296414" height="16.0" fill="#4285F4"/><text x="140" y="443.0" text-anchor="end" font-family="Arial" font-size="12">Newfoundland</text><text x="257.30905356296415" y="443.0" font-family="Arial" font-size="12">120.0</text></svg>