<svg width="600" height="600" xmlns="http://www.w3.org/2000/svg"><rect width="100%" height="100%" fill="white"/><text x="300.0" y="30.0" text-anchor="middle" font-family="Arial" font-size="20" font-weight="bold">Rank-Frequency Distribution (Log-Log)</text><line x1="60" y1="540" x2="540" y2="540" stroke="black"/><line x1="60" y1="540" x2="60" y2="60" stroke="black"/><circle cx="60.0" cy="60.0" r="3" fill="#EA4335" opacity="0.6"/><circle cx="126.94630695627116" cy="168.2158388275884" r="3" fill="#EA4335" opacity="0.6"/><circle cx="166.10738608745766" cy="182.45293196011028" r="3" fill="#EA4335" opacity="0.6"/><circle cx="193.89261391254232" cy="186.39981341374215" r="3" fill="#EA4335" opacity="0.6"/><circle cx="215.44451097071928" cy="202.35906581397228" r="3" fill="#EA4335" opacity="0.6"/><circle cx="233.05369304372883" cy="206.5155548835503" r="3" fill="#EA4335" opacity="0.6"/><circle cx="247.94204434726706" cy="209.55047851378447" r="3" fill="#EA4335" opacity="0.6"/><circle cx="260.8389208688135" cy="214.91605621143106" r="3" fill="#EA4335" opacity="0.6"/><circle cx="272.2147721749153" cy="219.22794990558305" r="3" fill="#EA4335" opacity="0.6"/><circle cx="282.3908179269904" cy="228.15949867454708" r="3" fill="#EA4335" opacity="0.6"/><circle cx="291.5961710355225" cy="235.27902249720586" r="3" fill="#EA4335" opacity="0.6"/><circle cx="300.0" cy="260.6158060080777" r="3" fill="#EA4335" opacity="0.6"/><circle cx="307.7307732438511" cy="269.0104544492456" r="3" fill="#EA4335" opacity="0.6"/><circle cx="314.88835130353823" cy="269.0104544492456" r="3" fill="#EA4335" opacity="0.6"/><circle cx="321.55189705817696" cy="289.40528009274294" r="3" fill="#EA4335" opacity="0.6"/><circle cx="327.78522782508463" cy="295.8387645334324" r="3" fill="#EA4335" opacity="0.6"/><circle cx="333.64054204269746" cy="300.6203134193785" r="3" fill="#EA4335" opacity="0.6"/><circle cx="339.1610791311865" cy="304.01478987176637" r="3" fill="#EA4335" opacity="0.6"/><circle cx="344.38305924298396" cy="304.01478987176637" r="3" fill="#EA4335" opacity="0.6"/><circle cx="349.3371248832616" cy="311.77660921924297" r="3" fill="#EA4335" opacity="0.6"/><circle cx="354.04943043472474" cy="315.40871292130157" r="3" fill="#EA4335" opacity="0.6"/><circle cx="358.54247799179365" cy="336.26274658304396" r="3" fill="#EA4335" opacity="0.6"/><circle cx="362.8357672459032" cy="339.785724129551" r="3" fill="#EA4335" opacity="0.6"/><circle cx="366.9463069562711" cy="341.0036887918914" r="3" fill="#EA4335" opacity="0.6"/><circle cx="370.88902194143856" cy="346.7851429093629" r="3" fill="#EA4335" opacity="0.6"/><circle cx="374.67708020012225" cy="348.8321975078152" r="3" fill="#EA4335" opacity="0.6"/><circle cx="378.322158262373" cy="349.5290941214464" r="3" fill="#EA4335" opacity="0.6"/><circle cx="381.8346582598094" cy="354.6279456282506" r="3" fill="#EA4335" opacity="0.6"/><circle cx="385.2238868875421" cy="358.5308613489003" r="3" fill="#EA4335" opacity="0.6"/><circle cx="388.49820401444805" cy="360.15992650582456" r="3" fill="#EA4335" opacity="0.6"/><circle cx="391.6651469167858" cy="365.30674916421003" r="3" fill="#EA4335" opacity="0.6"/><circle cx="394.7315347813558" cy="365.30674916421003" r="3" fill="#EA4335" opacity="0.6"/><circle cx="397.70355712298016" cy="372.869920407164" r="3" fill="#EA4335" opacity="0.6"/><circle cx="400.58684899896866" cy="372.869920407164" r="3" fill="#EA4335" opacity="0.6"/><circle cx="403.38655531798634" cy="375.9488811605562" r="3" fill="#EA4335" opacity="0.6"/><circle cx="406.10738608745766" cy="378.085440185513" r="3" fill="#EA4335" opacity="0.6"/><circle cx="408.75366408977555" cy="380.29443858674637" r="3" fill="#EA4335" opacity="0.6"/><circle cx="411.3293661992551" cy="380.29443858674637" r="3" fill="#EA4335" opacity="0.6"/><circle cx="413.8381593313087" cy="383.755032966928" r="3" fill="#EA4335" opacity="0.6"/><circle cx="416.2834318395327" cy="384.9506483880101" r="3" fill="#EA4335" opacity="0.6"/><circle cx="418.6683210353481" cy="384.9506483880101" r="3" fill="#EA4335" opacity="0.6"/><circle cx="420.9957373909959" cy="384.9506483880101" r="3" fill="#EA4335" opacity="0.6"/><circle cx="423.26838589428206" cy="386.1686130503506" r="3" fill="#EA4335" opacity="0.6"/><circle cx="425.48878494806485" cy="391.281761696488" r="3" fill="#EA4335" opacity="0.6"/><circle cx="427.6592831456346" cy="393.99712176627423" r="3" fill="#EA4335" opacity="0.6"/><circle cx="429.78207420217433" cy="393.99712176627423" r="3" fill="#EA4335" opacity="0.6"/><circle cx="431.85921028029287" cy="399.7928698867097" r="3" fill="#EA4335" opacity="0.6"/><circle cx="433.8926139125423" cy="406.15491564877095" r="3" fill="#EA4335" opacity="0.6"/><circle cx="435.8840886945341" cy="407.8474578806129" r="3" fill="#EA4335" opacity="0.6"/><circle cx="437.83532889770964" cy="411.3704354271199" r="3" fill="#EA4335" opacity="0.6"/><circle cx="439.7479281301551" cy="415.09483264637936" r="3" fill="#EA4335" opacity="0.6"/><circle cx="441.62338715639345" cy="415.09483264637936" r="3" fill="#EA4335" opacity="0.6"/><circle cx="443.46312097229213" cy="415.09483264637936" r="3" fill="#EA4335" opacity="0.6"/><circle cx="445.2684652186442" cy="417.040028208535" r="3" fill="#EA4335" opacity="0.6"/><circle cx="447.0406820062418" cy="419.0450852468805" r="3" fill="#EA4335" opacity="0.6"/><circle cx="448.7809652160806" cy="419.0450852468805" r="3" fill="#EA4335" opacity="0.6"/><circle cx="450.4904453304417" cy="419.0450852468805" r="3" fill="#EA4335" opacity="0.6"/><circle cx="452.17019384381325" cy="421.1138054190153" r="3" fill="#EA4335" opacity="0.6"/><circle cx="453.82122729675285" cy="425.4593628452055" r="3" fill="#EA4335" opacity="0.6"/><circle cx="455.44451097071925" cy="425.4593628452055" r="3" fill="#EA4335" opacity="0.6"/><circle cx="457.04096227750335" cy="430.1155726464692" r="3" fill="#EA4335" opacity="0.6"/><circle cx="458.611453873057" cy="432.57470268788074" r="3" fill="#EA4335" opacity="0.6"/><circle cx="460.1568165221824" cy="432.57470268788074" r="3" fill="#EA4335" opacity="0.6"/><circle cx="461.6778417376269" cy="435.1302934608241" r="3" fill="#EA4335" opacity="0.6"/><circle cx="463.17528421457035" cy="437.7902224662298" r="3" fill="#EA4335" opacity="0.6"/><circle cx="464.6498640792513" cy="437.7902224662298" r="3" fill="#EA4335" opacity="0.6"/><circle cx="466.10226896850446" cy="437.7902224662298" r="3" fill="#EA4335" opacity="0.6"/><circle cx="467.5331559552398" cy="437.7902224662298" r="3" fill="#EA4335" opacity="0.6"/><circle cx="468.9431533333608" cy="443.4598152476448" r="3" fill="#EA4335" opacity="0.6"/><circle cx="470.33286227425754" cy="446.491022820263" r="3" fill="#EA4335" opacity="0.6"/><circle cx="471.70285836580484" cy="446.491022820263" r="3" fill="#EA4335" opacity="0.6"/><circle cx="473.05369304372886" cy="449.67015148308184" r="3" fill="#EA4335" opacity="0.6"/><circle cx="474.38589492424734" cy="453.012382139072" r="3" fill="#EA4335" opacity="0.6"/><circle cx="475.6999710460467" cy="453.012382139072" r="3" fill="#EA4335" opacity="0.6"/><circle cx="476.9964080288962" cy="456.535359685579" r="3" fill="#EA4335" opacity="0.6"/><circle cx="478.2756731555263" cy="456.535359685579" r="3" fill="#EA4335" opacity="0.6"/><circle cx="479.53821538278953" cy="456.535359685579" r="3" fill="#EA4335" opacity="0.6"/><circle cx="480.7844662875799" cy="456.535359685579" r="3" fill="#EA4335" opacity="0.6"/><circle cx="482.014840952497" cy="460.2597569048384" r="3" fill="#EA4335" opacity="0.6"/><circle cx="483.2297387958039" cy="460.2597569048384" r="3" fill="#EA4335" opacity="0.6"/><circle cx="484.4295443498306" cy="464.2100095053396" r="3" fill="#EA4335" opacity="0.6"/><circle cx="485.6146279916193" cy="468.4152887024311" r="3" fill="#EA4335" opacity="0.6"/><circle cx="486.78534662928354" cy="472.9108098593729" r="3" fill="#EA4335" opacity="0.6"/><circle cx="487.94204434726703" cy="477.73962694633985" r="3" fill="#EA4335" opacity="0.6"/><circle cx="489.0850530134167" cy="477.73962694633985" r="3" fill="#EA4335" opacity="0.6"/><circle cx="490.2146928505532" cy="477.73962694633985" r="3" fill="#EA4335" opacity="0.6"/><circle cx="491.33127297499976" cy="482.95514672468886" r="3" fill="#EA4335" opacity="0.6"/><circle cx="492.435091904336" cy="482.95514672468886" r="3" fill="#EA4335" opacity="0.6"/><circle cx="493.52643803646345" cy="488.6247395061039" r="3" fill="#EA4335" opacity="0.6"/><circle cx="494.6055901019058" cy="488.6247395061039" r="3" fill="#EA4335" opacity="0.6"/><circle cx="495.67281759111813" cy="488.6247395061039" r="3" fill="#EA4335" opacity="0.6"/><circle cx="496.72838115844553" cy="494.83507574154095" r="3" fill="#EA4335" opacity="0.6"/><circle cx="497.77253300424337" cy="494.83507574154095" r="3" fill="#EA4335" opacity="0.6"/><circle cx="498.805517236564" cy="501.7002839440381" r="3" fill="#EA4335" opacity="0.6"/><circle cx="499.8275702137032" cy="501.7002839440381" r="3" fill="#EA4335" opacity="0.6"/><circle cx="500.83892086881343" cy="501.7002839440381" r="3" fill="#EA4335" opacity="0.6"/><circle cx="501.83979101769546" cy="501.7002839440381" r="3" fill="#EA4335" opacity="0.6"/><circle cx="502.83039565080526" cy="501.7002839440381" r="3" fill="#EA4335" opacity="0.6"/><circle cx="503.8109432104378" cy="501.7002839440381" r="3" fill="#EA4335" opacity="0.6"/><circle cx="504.78163585398084" cy="509.3749337637987" r="3" fill="#EA4335" opacity="0.6"/><circle cx="505.742669704071" cy="509.3749337637987" r="3" fill="#EA4335" opacity="0.6"/><circle cx="506.6942350864263" cy="509.3749337637987" r="3" fill="#EA4335" opacity="0.6"/><circle cx="507.6365167560766" cy="509.3749337637987" r="3" fill="#EA4335" opacity="0.6"/><circle cx="508.56969411266454" cy="509.3749337637987" r="3" fill="#EA4335" opacity="0.6"/><circle cx="509.49394140544405" cy="509.3749337637987" r="3" fill="#EA4335" opacity="0.6"/><circle cx="510.40942792856333" cy="509.3749337637987" r="3" fill="#EA4335" opacity="0.6"/><circle cx="511.31631820717945" cy="509.3749337637987" r="3" fill="#EA4335" opacity="0.6"/><circle cx="512.2147721749154" cy="509.3749337637987" r="3" fill="#EA4335" opacity="0.6"/><circle cx="513.104945343139" cy="518.075734117832" r="3" fill="#EA4335" opacity="0.6"/><circle cx="513.9869889625129" cy="518.075734117832" r="3" fill="#EA4335" opacity="0.6"/><circle cx="514.8610501772332" cy="518.075734117832" r="3" fill="#EA4335" opacity="0.6"/><circle cx="515.7272721723516" cy="518.075734117832" r="3" fill="#EA4335" opacity="0.6"/><circle cx="516.58579431455" cy="528.1200709831479" r="3" fill="#EA4335" opacity="0.6"/><circle cx="517.4367522867128" cy="528.1200709831479" r="3" fill="#EA4335" opacity="0.6"/><circle cx="518.2802782166225" cy="528.1200709831479" r="3" fill="#EA4335" opacity="0.6"/><circle cx="519.1165008000844" cy="528.1200709831479" r="3" fill="#EA4335" opacity="0.6"/><circle cx="519.9455454187664" cy="528.1200709831479" r="3" fill="#EA4335" opacity="0.6"/><circle cx="520.767534253024" cy="528.1200709831479" r="3" fill="#EA4335" opacity="0.6"/><circle cx="521.5825863899645" cy="528.1200709831479" r="3" fill="#EA4335" opacity="0.6"/><circle cx="522.3908179269904" cy="528.1200709831479" r="3" fill="#EA4335" opacity="0.6"/><circle cx="523.192342071045" cy="528.1200709831479" r="3" fill="#EA4335" opacity="0.6"/><circle cx="523.9872692337746" cy="528.1200709831479" r="3" fill="#EA4335" opacity="0.6"/><circle cx="524.7757071228058" cy="528.1200709831479" r="3" fill="#EA4335" opacity="0.6"/><circle cx="525.5577608293281" cy="528.1200709831479" r="3" fill="#EA4335" opacity="0.6"/><circle cx="526.3335329121578" cy="540.0" r="3" fill="#EA4335" opacity="0.6"/><circle cx="527.1031234784535" cy="540.0" r="3" fill="#EA4335" opacity="0.6"/><circle cx="527.8666302612412" cy="540.0" r="3" fill="#EA4335" opacity="0.6"/><circle cx="528.6241486938982" cy="540.0" r="3" fill="#EA4335" opacity="0.6"/><circle cx="529.3757719817397" cy="540.0" r="3" fill="#EA4335" opacity="0.6"/><circle cx="530.1215911708416" cy="540.0" r="3" fill="#EA4335" opacity="0.6"/><circle cx="530.8616952142243" cy="540.0" r="3" fill="#EA4335" opacity="0.6"/><circle cx="531.5961710355225" cy="540.0" r="3" fill="#EA4335" opacity="0.6"/><circle cx="532.325103590251" cy="540.0" r="3" fill="#EA4335" opacity="0.6"/><circle cx="533.0485759247756" cy="540.0" r="3" fill="#EA4335" opacity="0.6"/><circle cx="533.7666692330922" cy="540.0" r="3" fill="#EA4335" opacity="0.6"/><circle cx="534.479462911511" cy="540.0" r="3" fill="#EA4335" opacity="0.6"/><circle cx="535.1870346113361" cy="540.0" r="3" fill="#EA4335" opacity="0.6"/><circle cx="535.8894602896321" cy="540.0" r="3" fill="#EA4335" opacity="0.6"/><circle cx="536.5868142581542" cy="540.0" r="3" fill="#EA4335" opacity="0.6"/><circle cx="537.2791692305286" cy="540.0" r="3" fill="#EA4335" opacity="0.6"/><circle cx="537.9665963677505" cy="540.0" r="3" fill="#EA4335" opacity="0.6"/><circle cx="538.649165322076" cy="540.0" r="3" fill="#EA4335" opacity="0.6"/><circle cx="539.3269442793736" cy="540.0" r="3" fill="#EA4335" opacity="0.6"/><circle cx="540.0" cy="540.0" r="3" fill="#EA4335" opacity="0.6"/></svg>