<svg width="600" height="600" xmlns="http://www.w3.org/2000/svg"><rect width="100%" height="100%" fill="white"/><text x="300.0" y="30.0" text-anchor="middle" font-family="Arial" font-size="20" font-weight="bold">Rank-Frequency Distribution (Log-Log)</text><line x1="60" y1="540" x2="540" y2="540" stroke="black"/><line x1="60" y1="540" x2="60" y2="60" stroke="black"/><circle cx="60.0" cy="60.0" r="3" fill="#EA4335" opacity="0.6"/><circle cx="129.02307305922125" cy="174.65034632656432" r="3" fill="#EA4335" opacity="0.6"/><circle cx="169.39898248340234" cy="182.8503987441485" r="3" fill="#EA4335" opacity="0.6"/><circle cx="198.04614611844246" cy="186.51645326974074" r="3" fill="#EA4335" opacity="0.6"/><circle cx="220.26661253166878" cy="210.09535601326826" r="3" fill="#EA4335" opacity="0.6"/><circle cx="238.42205554262358" cy="211.7000730528693" r="3" fill="#EA4335" opacity="0.6"/><circle cx="253.77226388834632" cy="213.34405309495236" r="3" fill="#EA4335" opacity="0.6"/><circle cx="267.0692191776637" cy="219.09623096486735" r="3" fill="#EA4335" opacity="0.6"/><circle cx="278.79796496680467" cy="228.70308084218289" r="3" fill="#EA4335" opacity="0.6"/><circle cx="289.28968559089003" cy="230.5586635563243" r="3" fill="#EA4335" opacity="0.6"/><circle cx="298.7806013565821" cy="244.55221514876598" r="3" fill="#EA4335" opacity="0.6"/><circle cx="307.4451286018448" cy="263.55262601931963" r="3" fill="#EA4335" opacity="0.6"/><circle cx="315.4157210164966" cy="269.51918028418436" r="3" fill="#EA4335" opacity="0.6"/><circle cx="322.79533694756753" cy="271.2203934906627" r="3" fill="#EA4335" opacity="0.6"/><circle cx="329.6655950150712" cy="292.8035332187913" r="3" fill="#EA4335" opacity="0.6"/><circle cx="336.09229223688493" cy="301.4858292596694" r="3" fill="#EA4335" opacity="0.6"/><circle cx="342.12924631847415" cy="303.0485585875657" r="3" fill="#EA4335" opacity="0.6"/><circle cx="347.8210380260259" cy="313.27498602307855" r="3" fill="#EA4335" opacity="0.6"/><circle cx="353.2050111106925" cy="314.67007417868723" r="3" fill="#EA4335" opacity="0.6"/><circle cx="358.3127586501112" cy="316.0947423681325" r="3" fill="#EA4335" opacity="0.6"/><circle cx="363.1712463717487" cy="322.64318862399523" r="3" fill="#EA4335" opacity="0.6"/><circle cx="367.80367441580336" cy="342.1503883694969" r="3" fill="#EA4335" opacity="0.6"/><circle cx="372.2301473808369" cy="347.2934477570308" r="3" fill="#EA4335" opacity="0.6"/><circle cx="376.468201661066" cy="354.5429745375701" r="3" fill="#EA4335" opacity="0.6"/><circle cx="380.53322506333757" cy="354.5429745375701" r="3" fill="#EA4335" opacity="0.6"/><circle cx="384.43879407571785" cy="356.2660005449039" r="3" fill="#EA4335" opacity="0.6"/><circle cx="388.19694745020706" cy="357.14437033949037" r="3" fill="#EA4335" opacity="0.6"/><circle cx="391.8184100067888" cy="360.7773811799096" r="3" fill="#EA4335" opacity="0.6"/><circle cx="395.31277714699866" cy="362.6703044520806" r="3" fill="#EA4335" opacity="0.6"/><circle cx="398.6886680742923" cy="367.6499401698121" r="3" fill="#EA4335" opacity="0.6"/><circle cx="401.9538538815575" cy="369.7499339677827" r="3" fill="#EA4335" opacity="0.6"/><circle cx="405.1153652961061" cy="370.825066223451" r="3" fill="#EA4335" opacity="0.6"/><circle cx="408.1795838399845" cy="370.825066223451" r="3" fill="#EA4335" opacity="0.6"/><circle cx="411.1523193776954" cy="377.6642864220741" r="3" fill="#EA4335" opacity="0.6"/><circle cx="414.0388764200151" cy="378.8750278709855" r="3" fill="#EA4335" opacity="0.6"/><circle cx="416.84411108524716" cy="383.9487074563357" r="3" fill="#EA4335" opacity="0.6"/><circle cx="419.5724802544129" cy="389.4370082257718" r="3" fill="#EA4335" opacity="0.6"/><circle cx="422.22808416991376" cy="392.35896129386424" r="3" fill="#EA4335" opacity="0.6"/><circle cx="424.8147034998989" cy="393.86900984097895" r="3" fill="#EA4335" opacity="0.6"/><circle cx="427.3358317093324" cy="393.86900984097895" r="3" fill="#EA4335" opacity="0.6"/><circle cx="429.7947034333311" cy="395.41377517132264" r="3" fill="#EA4335" opacity="0.6"/><circle cx="432.19431943096987" cy="396.99489123690245" r="3" fill="#EA4335" opacity="0.6"/><circle cx="434.53746860248003" cy="398.61411012881945" r="3" fill="#EA4335" opacity="0.6"/><circle cx="436.82674747502455" cy="403.71993242343854" r="3" fill="#EA4335" opacity="0.6"/><circle cx="439.06457749847345" cy="405.5118874836061" r="3" fill="#EA4335" opacity="0.6"/><circle cx="441.2532204400581" cy="411.19366472545545" r="3" fill="#EA4335" opacity="0.6"/><circle cx="443.3947921232813" cy="411.19366472545545" r="3" fill="#EA4335" opacity="0.6"/><circle cx="445.4912747202872" cy="413.1996146558073" r="3" fill="#EA4335" opacity="0.6"/><circle cx="447.54452777669263" cy="417.40062830739913" r="3" fill="#EA4335" opacity="0.6"/><circle cx="449.55629812255876" cy="417.40062830739913" r="3" fill="#EA4335" opacity="0.6"/><circle cx="451.5282288018765" cy="419.60391856298406" r="3" fill="#EA4335" opacity="0.6"/><circle cx="453.46186713493904" cy="421.88191069668545" r="3" fill="#EA4335" opacity="0.6"/><circle cx="455.35867201272333" cy="424.2398485060222" r="3" fill="#EA4335" opacity="0.6"/><circle cx="457.22002050942825" cy="424.2398485060222" r="3" fill="#EA4335" opacity="0.6"/><circle cx="459.0472138882509" cy="426.6835480786861" r="3" fill="#EA4335" opacity="0.6"/><circle cx="460.84148306601" cy="431.85489386211026" r="3" fill="#EA4335" opacity="0.6"/><circle cx="462.60399359409496" cy="434.5979005329775" r="3" fill="#EA4335" opacity="0.6"/><circle cx="464.33585020621985" cy="434.5979005329775" r="3" fill="#EA4335" opacity="0.6"/><circle cx="466.0381009774223" cy="437.4576654129705" r="3" fill="#EA4335" opacity="0.6"/><circle cx="467.7117411335136" cy="437.4576654129705" r="3" fill="#EA4335" opacity="0.6"/><circle cx="469.3577165456543" cy="440.44457192492706" r="3" fill="#EA4335" opacity="0.6"/><circle cx="470.97692694077875" cy="440.44457192492706" r="3" fill="#EA4335" opacity="0.6"/><circle cx="472.57022885515096" cy="440.44457192492706" r="3" fill="#EA4335" opacity="0.6"/><circle cx="474.13843835532737" cy="440.44457192492706" r="3" fill="#EA4335" opacity="0.6"/><circle cx="475.6823335481654" cy="446.8488758321038" r="3" fill="#EA4335" opacity="0.6"/><circle cx="477.2026568992057" cy="450.29549450738665" r="3" fill="#EA4335" opacity="0.6"/><circle cx="478.700117376719" cy="450.29549450738665" r="3" fill="#EA4335" opacity="0.6"/><circle cx="480.17539243691664" cy="453.92850534780587" r="3" fill="#EA4335" opacity="0.6"/><circle cx="481.6291298642392" cy="457.76922680940356" r="3" fill="#EA4335" opacity="0.6"/><circle cx="483.0619494792363" cy="457.76922680940356" r="3" fill="#EA4335" opacity="0.6"/><circle cx="484.4744447253069" cy="461.8428578020972" r="3" fill="#EA4335" opacity="0.6"/><circle cx="485.86718414446835" cy="461.8428578020972" r="3" fill="#EA4335" opacity="0.6"/><circle cx="487.2407127513372" cy="461.8428578020972" r="3" fill="#EA4335" opacity="0.6"/><circle cx="488.5955533136342" cy="461.8428578020972" r="3" fill="#EA4335" opacity="0.6"/><circle cx="489.9322075467399" cy="461.8428578020972" r="3" fill="#EA4335" opacity="0.6"/><circle cx="491.251157229135" cy="470.8154105899704" r="3" fill="#EA4335" opacity="0.6"/><circle cx="492.5528652449284" cy="475.7950463077018" r="3" fill="#EA4335" opacity="0.6"/><circle cx="493.8377765591202" cy="475.7950463077018" r="3" fill="#EA4335" opacity="0.6"/><circle cx="495.1063191307404" cy="475.7950463077018" r="3" fill="#EA4335" opacity="0.6"/><circle cx="496.35890476855366" cy="481.17346261692563" r="3" fill="#EA4335" opacity="0.6"/><circle cx="497.59592993360934" cy="481.17346261692563" r="3" fill="#EA4335" opacity="0.6"/><circle cx="498.81777649255235" cy="481.17346261692563" r="3" fill="#EA4335" opacity="0.6"/><circle cx="500.02481242527494" cy="487.0201340088752" r="3" fill="#EA4335" opacity="0.6"/><circle cx="501.2173924901911" cy="487.0201340088752" r="3" fill="#EA4335" opacity="0.6"/><circle cx="502.3958588501429" cy="493.4244379160519" r="3" fill="#EA4335" opacity="0.6"/><circle cx="503.5605416617013" cy="493.4244379160519" r="3" fill="#EA4335" opacity="0.6"/><circle cx="504.711759630401" cy="493.4244379160519" r="3" fill="#EA4335" opacity="0.6"/><circle cx="505.8498205342458" cy="493.4244379160519" r="3" fill="#EA4335" opacity="0.6"/><circle cx="506.97502171763506" cy="493.4244379160519" r="3" fill="#EA4335" opacity="0.6"/><circle cx="508.0876505576947" cy="500.504067431754" r="3" fill="#EA4335" opacity="0.6"/><circle cx="509.18798490484295" cy="500.504067431754" r="3" fill="#EA4335" opacity="0.6"/><circle cx="510.27629349927935" cy="508.4184198860454" r="3" fill="#EA4335" opacity="0.6"/><circle cx="511.35283636495984" cy="508.4184198860454" r="3" fill="#EA4335" opacity="0.6"/><circle cx="512.4178651825025" cy="508.4184198860454" r="3" fill="#EA4335" opacity="0.6"/><circle cx="513.4716236423614" cy="508.4184198860454" r="3" fill="#EA4335" opacity="0.6"/><circle cx="514.5143477795085" cy="517.3909726739184" r="3" fill="#EA4335" opacity="0.6"/><circle cx="515.5462662907745" cy="527.7490247008737" r="3" fill="#EA4335" opacity="0.6"/><circle cx="516.5676008359139" cy="527.7490247008737" r="3" fill="#EA4335" opacity="0.6"/><circle cx="517.5785663233868" cy="527.7490247008737" r="3" fill="#EA4335" opacity="0.6"/><circle cx="518.5793711817801" cy="527.7490247008737" r="3" fill="#EA4335" opacity="0.6"/><circle cx="519.5702176177228" cy="527.7490247008737" r="3" fill="#EA4335" opacity="0.6"/><circle cx="520.5513018610977" cy="527.7490247008737" r="3" fill="#EA4335" opacity="0.6"/><circle cx="521.5228143982886" cy="527.7490247008737" r="3" fill="#EA4335" opacity="0.6"/><circle cx="522.4849401941603" cy="527.7490247008737" r="3" fill="#EA4335" opacity="0.6"/><circle cx="523.4378589034175" cy="540.0" r="3" fill="#EA4335" opacity="0.6"/><circle cx="524.3817450719446" cy="540.0" r="3" fill="#EA4335" opacity="0.6"/><circle cx="525.3167683286943" cy="540.0" r="3" fill="#EA4335" opacity="0.6"/><circle cx="526.2430935686496" cy="540.0" r="3" fill="#EA4335" opacity="0.6"/><circle cx="527.1608811273537" cy="540.0" r="3" fill="#EA4335" opacity="0.6"/><circle cx="528.0702869474721" cy="540.0" r="3" fill="#EA4335" opacity="0.6"/><circle cx="528.9714627378153" cy="540.0" r="3" fill="#EA4335" opacity="0.6"/><circle cx="529.8645561252313" cy="540.0" r="3" fill="#EA4335" opacity="0.6"/><circle cx="530.749710799747" cy="540.0" r="3" fill="#EA4335" opacity="0.6"/><circle cx="531.6270666533162" cy="540.0" r="3" fill="#EA4335" opacity="0.6"/><circle cx="532.4967599125057" cy="540.0" r="3" fill="#EA4335" opacity="0.6"/><circle cx="533.3589232654411" cy="540.0" r="3" fill="#EA4335" opacity="0.6"/><circle cx="534.2136859833013" cy="540.0" r="3" fill="#EA4335" opacity="0.6"/><circle cx="535.0611740366436" cy="540.0" r="3" fill="#EA4335" opacity="0.6"/><circle cx="535.9015102068204" cy="540.0" r="3" fill="#EA4335" opacity="0.6"/><circle cx="536.7348141927348" cy="540.0" r="3" fill="#EA4335" opacity="0.6"/><circle cx="537.5612027131642" cy="540.0" r="3" fill="#EA4335" opacity="0.6"/><circle cx="538.3807896048755" cy="540.0" r="3" fill="#EA4335" opacity="0.6"/><circle cx="539.1936859167336" cy="540.0" r="3" fill="#EA4335" opacity="0.6"/><circle cx="540.0" cy="540.0" r="3" fill="#EA4335" opacity="0.6"/></svg>